<svg width="7" height="12" viewBox="0 0 7 12" fill="none" xmlns="http://www.w3.org/2000/svg">
<path d="M0.256507 1.46482L5.03917 5.99999L0.256507 10.5352C0.0922683 10.6961 0 10.9144 0 11.1419C0 11.3695 0.0922683 11.5878 0.256507 11.7487C0.420746 11.9096 0.643503 12 0.875772 12C1.10804 12 1.3308 11.9096 1.49504 11.7487L6.74303 6.60675C6.82449 6.52714 6.88911 6.43257 6.93321 6.32846C6.9773 6.22434 7 6.11272 7 6C7 5.88728 6.9773 5.77566 6.93321 5.67155C6.88911 5.56743 6.82449 5.47286 6.74303 5.39325L1.49504 0.251323C1.3308 0.0904038 1.10804 0 0.875772 0C0.643503 0 0.420746 0.0904038 0.256507 0.251323C0.0922683 0.412243 0 0.630497 0 0.858071C0 1.08565 0.0922683 1.3039 0.256507 1.46482Z" fill="white"/>
</svg>
