<svg width="38" height="38" viewBox="0 0 38 38" fill="none" xmlns="http://www.w3.org/2000/svg">
<g filter="url(#filter0_d_127_374)">
<circle cx="19" cy="15" r="15" transform="rotate(-180 19 15)" fill="#E28F1D"/>
<path d="M21.6794 20.669L15.701 15L21.6794 9.33102C21.8847 9.12987 22 8.85705 22 8.57259C22 8.28812 21.8847 8.0153 21.6794 7.81415C21.4741 7.613 21.1956 7.5 20.9053 7.5C20.6149 7.5 20.3365 7.613 20.1312 7.81415L13.5712 14.2416C13.4694 14.3411 13.3886 14.4593 13.3335 14.5894C13.2784 14.7196 13.25 14.8591 13.25 15C13.25 15.1409 13.2784 15.2804 13.3335 15.4106C13.3886 15.5407 13.4694 15.6589 13.5712 15.7584L20.1312 22.1858C20.3365 22.387 20.6149 22.5 20.9053 22.5C21.1956 22.5 21.4741 22.387 21.6794 22.1858C21.8847 21.9847 22 21.7119 22 21.4274C22 21.1429 21.8847 20.8701 21.6794 20.669Z" fill="white"/>
</g>
<defs>
<filter id="filter0_d_127_374" x="0" y="0" width="38" height="38" filterUnits="userSpaceOnUse" color-interpolation-filters="sRGB">
<feFlood flood-opacity="0" result="BackgroundImageFix"/>
<feColorMatrix in="SourceAlpha" type="matrix" values="0 0 0 0 0 0 0 0 0 0 0 0 0 0 0 0 0 0 127 0" result="hardAlpha"/>
<feOffset dy="4"/>
<feGaussianBlur stdDeviation="2"/>
<feComposite in2="hardAlpha" operator="out"/>
<feColorMatrix type="matrix" values="0 0 0 0 0.886275 0 0 0 0 0.560784 0 0 0 0 0.113725 0 0 0 0.25 0"/>
<feBlend mode="normal" in2="BackgroundImageFix" result="effect1_dropShadow_127_374"/>
<feBlend mode="normal" in="SourceGraphic" in2="effect1_dropShadow_127_374" result="shape"/>
</filter>
</defs>
</svg>
