<svg width="27" height="20" viewBox="0 0 27 20" fill="none" xmlns="http://www.w3.org/2000/svg">
<path fill-rule="evenodd" clip-rule="evenodd" d="M26.6667 9.5239C26.6667 9.55584 26.6659 9.58759 26.6643 9.61914H26.6667L26.6667 13.3334V18.0953L22.8571 18.0953L3.80952 18.0953L0 18.0953V9.61914H0.00233923C0.000785836 9.58759 0 9.55584 0 9.52391C0 8.47194 0.852791 7.61915 1.90476 7.61915C2.95673 7.61915 3.80952 8.47194 3.80952 9.52391C3.80952 9.55584 3.80874 9.58759 3.80718 9.61914H3.80952L3.80952 13.3334H22.8571V9.61914H22.8595C22.8579 9.58759 22.8571 9.55584 22.8571 9.5239C22.8571 8.47193 23.7099 7.61914 24.7619 7.61914C25.8139 7.61914 26.6667 8.47193 26.6667 9.5239ZM24.7619 18.0953V19.0477C24.7619 19.5737 25.1883 20.0001 25.7143 20.0001C26.2403 20.0001 26.6667 19.5737 26.6667 19.0477V18.0953H25.7143H24.7619ZM1.90476 19.0477C1.90476 19.5737 1.47837 20.0001 0.952381 20.0001C0.426395 20.0001 0 19.5737 0 19.0477V18.0953H0.952381H1.90476V19.0477Z" fill="#232323"/>
<path fill-rule="evenodd" clip-rule="evenodd" d="M1.90631 2.95239H1.90476V5.4959C2.20265 5.39061 2.5232 5.33333 2.85714 5.33333C4.40323 5.33333 5.66249 6.56136 5.71273 8.09523H20.9539C21.0042 6.56136 22.2634 5.33333 23.8095 5.33333C24.1435 5.33333 24.464 5.39061 24.7619 5.4959V2.95239H24.7603C24.7614 2.92077 24.7619 2.88902 24.7619 2.85714C24.7619 1.27919 23.4827 0 21.9048 0H4.7619H4.66666V0.00155729C3.13279 0.0517926 1.90475 1.31106 1.90475 2.85714C1.90475 2.88902 1.90528 2.92077 1.90631 2.95239ZM5.71428 8.19504C5.71428 8.19351 5.71429 8.19199 5.71429 8.19047C5.71429 8.18894 5.71428 8.18742 5.71428 8.1859V8.09524H20.9524V11.4286H5.71428V8.19504Z" fill="#232323"/>
</svg>
