<svg width="26" height="26" viewBox="0 0 26 26" fill="none" xmlns="http://www.w3.org/2000/svg">
<path d="M23 21.0246V13.2947C23.0001 12.7569 22.889 12.2248 22.6735 11.7309C22.458 11.237 22.1428 10.7917 21.747 10.4224L14.374 3.53997C14.0027 3.19321 13.511 3 13 3C12.489 3 11.9973 3.19321 11.626 3.53997L4.253 10.4224C3.85722 10.7917 3.54195 11.237 3.3265 11.7309C3.11104 12.2248 2.99994 12.7569 3 13.2947V21.0246C3 21.5485 3.21071 22.0509 3.58579 22.4214C3.96086 22.7919 4.46957 23 5 23H21C21.5304 23 22.0391 22.7919 22.4142 22.4214C22.7893 22.0509 23 21.5485 23 21.0246Z" fill="#286086" stroke="#286086" stroke-width="4.16667" stroke-linecap="round" stroke-linejoin="round"/>
</svg>
