<svg width="20" height="20" viewBox="0 0 20 20" fill="none" xmlns="http://www.w3.org/2000/svg">
<circle cx="10" cy="10" r="10" fill="#E28F1D"/>
<path d="M8.21376 6.22068L12.1993 9.99999L8.21376 13.7793C8.07689 13.9134 8 14.0953 8 14.2849C8 14.4746 8.07689 14.6565 8.21376 14.7906C8.35062 14.9247 8.53625 15 8.72981 15C8.92337 15 9.109 14.9247 9.24586 14.7906L13.6192 10.5056C13.6871 10.4393 13.7409 10.3605 13.7777 10.2737C13.8144 10.1869 13.8333 10.0939 13.8333 10C13.8333 9.90606 13.8144 9.81305 13.7777 9.72629C13.7409 9.63952 13.6871 9.56072 13.6192 9.49438L9.24586 5.20944C9.109 5.07534 8.92337 5 8.72981 5C8.53625 5 8.35062 5.07534 8.21376 5.20944C8.07689 5.34354 8 5.52541 8 5.71506C8 5.9047 8.07689 6.08658 8.21376 6.22068Z" fill="white"/>
</svg>
