<svg width="18" height="14" viewBox="0 0 18 14" fill="none" xmlns="http://www.w3.org/2000/svg">
<path d="M17.2161 7.27309e-07H12.657C11.6786 7.27309e-07 10.7222 0.280957 9.89923 0.810988L8.92684 1.43467L7.95446 0.810988C7.13233 0.281059 6.17482 -0.000522301 5.1967 7.27309e-07H0.637632C0.284942 7.27309e-07 0 0.284942 0 0.637632V11.9556C0 12.3083 0.284942 12.5932 0.637632 12.5932H5.1967C6.17506 12.5932 7.13151 12.8742 7.95446 13.4042L8.83917 13.9741C8.86507 13.99 8.89496 14 8.92485 14C8.95474 14 8.98463 13.992 9.01053 13.9741L9.89525 13.4042C10.7202 12.8742 11.6786 12.5932 12.657 12.5932H17.2161C17.5687 12.5932 17.8537 12.3083 17.8537 11.9556V0.637632C17.8537 0.284942 17.5687 7.27309e-07 17.2161 7.27309e-07ZM6.77484 7.82095C6.77484 7.90265 6.71107 7.9704 6.63336 7.9704H2.93111C2.8534 7.9704 2.78964 7.90265 2.78964 7.82095V6.92428C2.78964 6.84259 2.8534 6.77484 2.93111 6.77484H6.63137C6.70908 6.77484 6.77284 6.84259 6.77284 6.92428V7.82095H6.77484ZM6.77484 5.03131C6.77484 5.11301 6.71107 5.18076 6.63336 5.18076H2.93111C2.8534 5.18076 2.78964 5.11301 2.78964 5.03131V4.13464C2.78964 4.05295 2.8534 3.9852 2.93111 3.9852H6.63137C6.70908 3.9852 6.77284 4.05295 6.77284 4.13464V5.03131H6.77484ZM15.064 7.82095C15.064 7.90265 15.0003 7.9704 14.9226 7.9704H11.2203C11.1426 7.9704 11.0789 7.90265 11.0789 7.82095V6.92428C11.0789 6.84259 11.1426 6.77484 11.2203 6.77484H14.9206C14.9983 6.77484 15.0621 6.84259 15.0621 6.92428V7.82095H15.064ZM15.064 5.03131C15.064 5.11301 15.0003 5.18076 14.9226 5.18076H11.2203C11.1426 5.18076 11.0789 5.11301 11.0789 5.03131V4.13464C11.0789 4.05295 11.1426 3.9852 11.2203 3.9852H14.9206C14.9983 3.9852 15.0621 4.05295 15.0621 4.13464V5.03131H15.064Z" fill="#FFD56B"/>
</svg>
