<svg width="22" height="20" viewBox="0 0 22 20" fill="none" xmlns="http://www.w3.org/2000/svg">
<path d="M21.6763 4.44495C21.48 4.11232 21.1989 3.83512 20.8604 3.64039C20.522 3.44566 20.1376 3.34006 19.745 3.33388H5.20323L4.5443 0.822847C4.47773 0.580453 4.3292 0.367244 4.12291 0.217947C3.91661 0.0686492 3.66471 -0.00794058 3.40823 0.000651624H1.13608C0.83477 0.000651624 0.545804 0.117711 0.332749 0.326078C0.119693 0.534445 0 0.817051 0 1.11173C0 1.4064 0.119693 1.68901 0.332749 1.89737C0.545804 2.10574 0.83477 2.2228 1.13608 2.2228H2.54481L5.68038 13.6224C5.74695 13.8648 5.89548 14.078 6.10177 14.2273C6.30807 14.3766 6.55997 14.4532 6.81645 14.4446H17.0411C17.2509 14.444 17.4565 14.3866 17.6349 14.2787C17.8134 14.1709 17.9578 14.0168 18.0522 13.8335L21.7786 6.54488C21.9401 6.2138 22.0153 5.84876 21.9974 5.48234C21.9796 5.11593 21.8693 4.75953 21.6763 4.44495Z" fill="#232323"/>
<path d="M6.24843 19.9992C7.18958 19.9992 7.95254 19.2531 7.95254 18.3326C7.95254 17.4122 7.18958 16.666 6.24843 16.666C5.30727 16.666 4.54431 17.4122 4.54431 18.3326C4.54431 19.2531 5.30727 19.9992 6.24843 19.9992Z" fill="#232323"/>
<path d="M17.6092 19.9992C18.5503 19.9992 19.3133 19.2531 19.3133 18.3326C19.3133 17.4122 18.5503 16.666 17.6092 16.666C16.668 16.666 15.9051 17.4122 15.9051 18.3326C15.9051 19.2531 16.668 19.9992 17.6092 19.9992Z" fill="#232323"/>
</svg>
