<svg width="10" height="7" viewBox="0 0 10 7" fill="none" xmlns="http://www.w3.org/2000/svg">
<path d="M0.467769 7H8.88277C8.96797 6.99973 9.05148 6.97623 9.12432 6.93203C9.19716 6.88784 9.25656 6.82461 9.29614 6.74916C9.33571 6.67371 9.35396 6.5889 9.34892 6.50385C9.34388 6.4188 9.31574 6.33674 9.26753 6.26649L5.06002 0.188987C4.88565 -0.0629957 4.46583 -0.0629957 4.29099 0.188987L0.0834833 6.26649C0.0347814 6.33659 0.00622144 6.41869 0.000906448 6.50389C-0.00440855 6.58908 0.0137247 6.67409 0.053336 6.7497C0.0929474 6.82531 0.152522 6.88862 0.225587 6.93275C0.298651 6.97687 0.382412 7.00013 0.467769 7Z" fill="#232323"/>
</svg>
