<svg width="19" height="14" viewBox="0 0 19 14" fill="none" xmlns="http://www.w3.org/2000/svg">
<path d="M0 11.6667V2.33333C0 1.71449 0.245833 1.121 0.683417 0.683417C1.121 0.245833 1.71449 0 2.33333 0H16.3333C16.9522 0 17.5457 0.245833 17.9832 0.683417C18.4208 1.121 18.6667 1.71449 18.6667 2.33333V11.6667C18.6667 12.2855 18.4208 12.879 17.9832 13.3166C17.5457 13.7542 16.9522 14 16.3333 14H2.33333C1.71449 14 1.121 13.7542 0.683417 13.3166C0.245833 12.879 0 12.2855 0 11.6667ZM7.92167 3.6085C7.83444 3.5464 7.73181 3.5095 7.62501 3.50185C7.51821 3.4942 7.41136 3.51609 7.31618 3.56513C7.22099 3.61417 7.14114 3.68846 7.08537 3.77987C7.0296 3.87127 7.00007 3.97626 7 4.08333V9.91667C7.00007 10.0237 7.0296 10.1287 7.08537 10.2201C7.14114 10.3115 7.22099 10.3858 7.31618 10.4349C7.41136 10.4839 7.51821 10.5058 7.62501 10.4981C7.73181 10.4905 7.83444 10.4536 7.92167 10.3915L12.005 7.47483C12.0806 7.42087 12.1423 7.34963 12.1848 7.26704C12.2273 7.18445 12.2495 7.0929 12.2495 7C12.2495 6.9071 12.2273 6.81555 12.1848 6.73296C12.1423 6.65037 12.0806 6.57913 12.005 6.52517L7.92167 3.6085Z" fill="#FF7B7B"/>
</svg>
